<?xml version="1.0" encoding="utf-8"?>
<!-- Generator: Adobe Illustrator 22.0.1, SVG Export Plug-In . SVG Version: 6.00 Build 0)  -->
<svg version="1.1" id="레이어_1" xmlns="http://www.w3.org/2000/svg" xmlns:xlink="http://www.w3.org/1999/xlink" x="0px"
	 y="0px" viewBox="0 0 550 108" style="enable-background:new 0 0 550 108;" xml:space="preserve">
<style type="text/css">
	.st0{fill:#C0685A;}
</style>
<g>
	<path class="st0" d="M246.3,10.8c-3-2.8-7.1-4.8-12.2-6.1s-11.5-1.9-19.2-1.9h-39.4c-7.6,0-14,0.6-19,1.9
		c-5.1,1.3-9.1,3.3-12.2,6.1c-3,2.8-5.2,6.5-6.5,11c-1.3,4.6-1.9,10.1-1.9,16.6V71c0,6.6,0.6,12.2,1.9,16.7c1.3,4.5,3.4,8.2,6.5,11
		c3,2.8,7.1,4.8,12.2,6.1c5.1,1.3,11.4,1.9,19,1.9h39.4c7.7,0,14.1-0.6,19.2-1.9c5.1-1.3,9.1-3.3,12.2-6.1c3-2.8,5.2-6.4,6.5-11
		c1.3-4.5,1.9-10.1,1.9-16.7V38.4c0-6.5-0.6-12-1.9-16.6C251.4,17.2,249.3,13.6,246.3,10.8 M231.4,70.1c0,3.4-0.3,6.1-0.8,8.3
		c-0.6,2.2-1.5,3.9-2.8,5.2c-1.3,1.3-3.1,2.1-5.4,2.6c-2.3,0.5-5.1,0.7-8.4,0.7h-37.5c-3.7,0-6.6-0.2-8.9-0.7
		c-2.3-0.5-4.1-1.3-5.4-2.6c-1.3-1.3-2.2-3-2.7-5.2s-0.7-4.9-0.7-8.3V39.5c0-3.2,0.2-5.9,0.7-8.1c0.5-2.1,1.3-3.9,2.7-5.2
		c1.3-1.3,3.1-2.2,5.4-2.7c2.3-0.5,5.3-0.8,8.9-0.8h37.5c3.3,0,6.2,0.3,8.4,0.8c2.3,0.5,4.1,1.4,5.4,2.7c1.3,1.3,2.3,3,2.8,5.2
		c0.6,2.1,0.8,4.8,0.8,8.1L231.4,70.1L231.4,70.1z"/>
	<path class="st0" d="M389.9,59c-1.1-1.6-2.5-2.9-4-3.7c-1.6-0.9-3.3-1.5-5.1-1.9c3.2-0.9,5.9-2.7,8.1-5.3c2.1-2.6,3.2-7,3.2-13.1
		v-8.6c0-4.4-0.6-8-1.8-11c-1.2-3-3.1-5.4-5.7-7.3c-2.6-1.9-6-3.2-10.1-4c-4.2-0.8-9.2-1.2-15.1-1.2h-87.5v103.8H361
		c5.9,0,10.9-0.4,15.1-1.2s7.5-2.1,10.1-3.9c2.6-1.8,4.5-4.1,5.6-6.9c1.2-2.8,1.8-6.3,1.8-10.5v-9.1c0-3.9-0.3-7.1-0.9-9.7
		C391.8,62.7,391,60.6,389.9,59 M294.9,21.7h62.6c4.9,0,8.2,0.6,10.1,1.8c1.9,1.2,2.8,3.3,2.8,6.5v6.4c0,3.5-0.8,5.8-2.3,7.2
		c-1.5,1.3-4.3,2-8.4,2h-64.8V21.7z M371.7,79.3c0,3.3-0.9,5.5-2.8,6.6c-1.9,1.2-5,1.7-9.4,1.7h-64.7V62.2h65.5
		c4.3,0,7.2,0.7,8.9,2.1c1.7,1.4,2.5,4.3,2.5,8.5V79.3z"/>
	<path class="st0" d="M489.9,10.7c-1.8-2.9-4-5.4-6.5-7.3c-2.5-1.9-6.1-2.9-10.8-2.9c-4.8,0-8.4,1-11,2.9c-2.5,1.9-4.7,4.4-6.5,7.3
		l-60.3,95.9h26.6l14.8-23.9H508l15.1,23.9h26.8L489.9,10.7z M446.9,64.9l25.2-41l25.1,40.9L446.9,64.9L446.9,64.9z"/>
	<path class="st0" d="M70.8,71.4h10.3c7.1,0,13.2-0.5,18.4-1.4s9.5-2.5,12.9-4.8c3.4-2.3,5.9-5.4,7.5-9.3s2.4-8.9,2.4-14.8v-7.2
		c0-6.2-0.8-11.3-2.3-15.4s-3.9-7.3-7.2-9.6s-7.5-4-12.7-4.9S88.7,2.6,81.4,2.6H31.1C11.7,2.6,0.2,14.8,0.2,29.8v76.6h23V92V68.6
		V53.9v-9.5V34.3c0-6.7,5.4-12.1,14.1-12.1h42.7c3.8,0,6.9,0.2,9.4,0.5s4.5,0.9,5.9,1.8s2.4,2.2,3,4c0.6,1.7,0.9,4,0.9,6.7v5.6
		c0,2.8-0.3,5.1-0.9,6.9c-0.6,1.7-1.7,3-3.1,4c-1.5,0.9-3.5,1.5-5.9,1.8c-2.5,0.3-5.6,0.5-9.4,0.5H56.8c-8.8,0-15.9,7.1-15.9,15.9
		v1.4c0,5.3,2.8,10.3,7.3,13.1l35.9,22.2h39.7l-54-31.2C67.9,74.3,68.6,71.4,70.8,71.4"/>
</g>
</svg>
