<?xml version="1.0" encoding="utf-8"?>
<!-- Generator: Adobe Illustrator 22.0.1, SVG Export Plug-In . SVG Version: 6.00 Build 0)  -->
<svg version="1.1" id="레이어_1" xmlns="http://www.w3.org/2000/svg" xmlns:xlink="http://www.w3.org/1999/xlink" x="0px"
	 y="0px" viewBox="0 0 768.9 223.3" style="enable-background:new 0 0 768.9 223.3;" xml:space="preserve">
<style type="text/css">
	.st0{fill:#C0685A;}
</style>
<g id="레이어_1_1_">
	<g>
		<path class="st0" d="M463.1,69.3c-3-2.8-7.1-4.8-12.2-6.1c-5.1-1.3-11.5-1.9-19.2-1.9h-39.4c-7.6,0-14,0.6-19,1.9
			c-5.1,1.3-9.1,3.3-12.2,6.1c-3,2.8-5.2,6.5-6.5,11c-1.3,4.6-1.9,10.1-1.9,16.6v32.6c0,6.6,0.6,12.2,1.9,16.7
			c1.3,4.5,3.4,8.2,6.5,11c3,2.8,7.1,4.8,12.2,6.1c5.1,1.3,11.4,1.9,19,1.9h39.4c7.7,0,14.1-0.6,19.2-1.9c5.1-1.3,9.1-3.3,12.2-6.1
			c3-2.8,5.2-6.4,6.5-11c1.3-4.5,1.9-10.1,1.9-16.7V96.9c0-6.5-0.6-12-1.9-16.6C468.3,75.7,466.2,72.1,463.1,69.3 M448.3,128.6
			c0,3.4-0.3,6.1-0.8,8.3c-0.6,2.2-1.5,3.9-2.8,5.2c-1.3,1.3-3.1,2.1-5.4,2.6c-2.3,0.5-5.1,0.7-8.4,0.7h-37.5
			c-3.7,0-6.6-0.2-8.9-0.7c-2.3-0.5-4.1-1.3-5.4-2.6c-1.3-1.3-2.2-3-2.7-5.2s-0.7-4.9-0.7-8.3V98c0-3.2,0.2-5.9,0.7-8.1
			c0.5-2.1,1.3-3.9,2.7-5.2c1.3-1.3,3.1-2.2,5.4-2.7c2.3-0.5,5.3-0.8,8.9-0.8h37.5c3.3,0,6.2,0.3,8.4,0.8c2.3,0.5,4.1,1.4,5.4,2.7
			c1.3,1.3,2.3,3,2.8,5.2c0.6,2.1,0.8,4.8,0.8,8.1V128.6z"/>
		<path class="st0" d="M606.7,117.5c-1.1-1.6-2.5-2.9-4-3.7c-1.6-0.9-3.3-1.5-5.1-1.9c3.2-0.9,5.9-2.7,8.1-5.3
			c2.1-2.6,3.2-7,3.2-13.1v-8.6c0-4.4-0.6-8-1.8-11s-3.1-5.4-5.7-7.3c-2.6-1.9-6-3.2-10.1-4c-4.2-0.8-9.2-1.2-15.1-1.2h-87.5v103.8
			h89.1c5.9,0,10.9-0.4,15.1-1.2c4.2-0.8,7.5-2.1,10.1-3.9s4.5-4.1,5.6-6.9c1.2-2.8,1.8-6.3,1.8-10.5v-9.1c0-3.9-0.3-7.1-0.9-9.7
			C608.6,121.2,607.8,119.1,606.7,117.5 M511.7,80.2h62.6c4.9,0,8.2,0.6,10.1,1.8c1.9,1.2,2.8,3.3,2.8,6.5V95c0,3.5-0.8,5.8-2.3,7.2
			c-1.5,1.3-4.3,2-8.4,2h-64.8L511.7,80.2L511.7,80.2z M588.5,137.8c0,3.3-0.9,5.5-2.8,6.6c-1.9,1.2-5,1.7-9.4,1.7h-64.7v-25.4h65.5
			c4.3,0,7.2,0.7,8.9,2.1s2.5,4.3,2.5,8.5V137.8z"/>
		<path class="st0" d="M706.7,69.2c-1.8-2.9-4-5.4-6.5-7.3s-6.1-2.9-10.8-2.9c-4.8,0-8.4,1-11,2.9c-2.5,1.9-4.7,4.4-6.5,7.3
			l-60.3,95.9h26.6l14.8-23.9h71.8l15.1,23.9h26.8L706.7,69.2z M663.7,123.4l25.1-40.9l25.1,40.9H663.7z"/>
		<path class="st0" d="M287.6,129.9h10.3c7.1,0,13.2-0.5,18.4-1.4s9.5-2.5,12.9-4.8s5.9-5.4,7.5-9.3s2.4-8.9,2.4-14.8v-7.2
			c0-6.2-0.8-11.3-2.3-15.4s-3.9-7.3-7.2-9.6c-3.3-2.3-7.5-4-12.7-4.9s-11.4-1.4-18.7-1.4h-50.3c-19.4,0-30.9,12.2-30.9,27.2v76.6
			h23v-14.4v-23.4v-14.9v-9.3V92.8c0-6.7,5.4-12.1,14.1-12.1h42.7c3.8,0,6.9,0.2,9.4,0.5s4.5,0.9,5.9,1.8s2.4,2.2,3,4
			c0.6,1.7,0.9,4,0.9,6.7v5.6c0,2.8-0.3,5.1-0.9,6.9c-0.6,1.7-1.7,3-3.1,4c-1.5,0.9-3.5,1.5-5.9,1.8c-2.5,0.3-5.6,0.5-9.4,0.5h-23.2
			c-8.8,0-15.9,7.1-15.9,15.9v1.4c0,5.3,2.8,10.3,7.3,13.1l35.9,22.2h39.7l-54-31.2C284.7,132.8,285.4,129.9,287.6,129.9"/>
		<path class="st0" d="M162.6,180.8c-2.3-0.5-3.8-1.6-5.2-2.5c-1.6-1.2-2.9-2.1-5.8-2.1c-2.8,0-4.1,0.9-5.8,2.1
			c-1.8,1.3-3.9,2.8-7.8,2.8c-4,0-6-1.5-7.8-2.8c-1.6-1.2-2.9-2.1-5.8-2.1c-2.8,0-4.1,0.9-5.8,2.1c-1.8,1.3-3.9,2.8-7.8,2.8
			c-4,0-6-1.5-7.8-2.8c-1.6-1.2-2.9-2.1-5.8-2.1c-2.8,0-4.1,0.9-5.8,2.1c-1.8,1.3-3.9,2.8-7.8,2.8c-4,0-6-1.5-7.8-2.8
			c-1.6-1.2-2.9-2.1-5.8-2.1c-2.8,0-4.1,0.9-5.8,2.1c-1.8,1.3-3.9,2.8-7.8,2.8c-4,0-6-1.5-7.8-2.8c-1.6-1.2-2.9-2.1-5.8-2.1
			c-2.8,0-4.1,0.9-5.8,2.1c-1.8,1.3-3.9,2.8-7.8,2.8s-6-1.5-7.8-2.8c-1.6-1.2-2.9-2.1-5.8-2.1v-3.5c4,0,6,1.5,7.8,2.8
			c1.6,1.2,2.9,2.1,5.8,2.1c2.8,0,4.1-0.9,5.8-2.1c1.8-1.3,3.9-2.8,7.8-2.8s6,1.5,7.8,2.8c1.6,1.2,2.9,2.1,5.8,2.1
			c2.8,0,4.1-0.9,5.8-2.1c1.8-1.3,3.9-2.8,7.8-2.8c4,0,6,1.5,7.8,2.8c1.6,1.2,2.9,2.1,5.8,2.1c2.8,0,4.1-0.9,5.8-2.1
			c1.8-1.3,3.9-2.8,7.8-2.8c4,0,6,1.5,7.8,2.8c1.6,1.2,2.9,2.1,5.8,2.1c2.8,0,4.1-0.9,5.8-2.1c1.8-1.3,3.9-2.8,7.8-2.8
			c4,0,6,1.5,7.8,2.8c1.6,1.2,2.9,2.1,5.8,2.1c2.8,0,4.1-0.9,5.8-2.1c1.8-1.3,3.9-2.8,7.8-2.8c4,0,6,1.5,7.8,2.8
			c1.6,1.2,2.9,2.1,5.8,2.1C165.3,177.6,163.4,181,162.6,180.8"/>
		<path class="st0" d="M151.7,187.7c-4,0-6,1.5-7.8,2.8c-1.6,1.2-2.9,2.1-5.8,2.1c-2.8,0-4.1-0.9-5.8-2.1c-1.8-1.3-3.9-2.8-7.8-2.8
			c-4,0-6,1.5-7.8,2.8c-1.6,1.2-2.9,2.1-5.8,2.1c-2.8,0-4.1-0.9-5.8-2.1c-1.8-1.3-3.9-2.8-7.8-2.8c-4,0-6,1.5-7.8,2.8
			c-1.6,1.2-2.9,2.1-5.8,2.1c-2.8,0-4.1-0.9-5.8-2.1c-1.8-1.3-3.9-2.8-7.8-2.8c-4,0-6,1.5-7.8,2.8c-1.6,1.2-2.9,2.1-5.8,2.1
			c-2.8,0-4.1-0.9-5.8-2.1c-1.8-1.3-3.9-2.8-7.8-2.8s-6,1.5-7.8,2.8c-1.6,1.2-2.9,2.1-5.8,2.1c-0.3,0-0.6,0-0.9,0l3.2,3.3
			c2.5-0.4,4.1-1.6,5.5-2.6c1.6-1.2,2.9-2.1,5.8-2.1c2.8,0,4.1,0.9,5.8,2.1c1.8,1.3,3.9,2.8,7.8,2.8c4,0,6-1.5,7.8-2.8
			c1.6-1.2,2.9-2.1,5.8-2.1c2.8,0,4.1,0.9,5.8,2.1c1.8,1.3,3.9,2.8,7.8,2.8c4,0,6-1.5,7.8-2.8c1.6-1.2,2.9-2.1,5.8-2.1
			c2.8,0,4.1,0.9,5.8,2.1c1.8,1.3,3.9,2.8,7.8,2.8c4,0,6-1.5,7.8-2.8c1.6-1.2,2.9-2.1,5.8-2.1c2.8,0,4.1,0.9,5.8,2.1
			c1.8,1.3,3.9,2.8,7.8,2.8c4,0,6-1.5,7.8-2.8c1.6-1.2,2.9-2.1,5.8-2.1c1,0,1.8,0.1,2.5,0.3l2.4-2.8
			C155.4,188.1,153.8,187.7,151.7,187.7"/>
		<path class="st0" d="M132.3,205.5c-1.8-1.3-3.9-2.8-7.8-2.8c-4,0-6,1.5-7.8,2.8c-1.6,1.2-2.9,2.1-5.8,2.1c-2.8,0-4.1-0.9-5.8-2.1
			c-1.8-1.3-3.9-2.8-7.8-2.8c-4,0-6,1.5-7.8,2.8c-1.6,1.2-2.9,2.1-5.8,2.1c-2.8,0-4.1-0.9-5.8-2.1c-1.8-1.3-3.9-2.8-7.8-2.8
			c-4,0-6,1.5-7.8,2.8c-1.6,1.2-2.9,2.1-5.8,2.1s-4.1-0.9-5.8-2.1c-1.8-1.3-3.9-2.8-7.8-2.8c-0.8,0-1.6,0.1-2.2,0.2l6.5,4.4
			c0.5,0.3,1,0.7,1.6,1.1c1.8,1.3,3.9,2.8,7.8,2.8c4,0,6-1.5,7.8-2.8c1.6-1.2,2.9-2.1,5.8-2.1c2.8,0,4.1,0.9,5.8,2.1
			c1.8,1.3,3.9,2.8,7.8,2.8c4,0,6-1.5,7.8-2.8c1.6-1.2,2.9-2.1,5.8-2.1s4.1,0.9,5.8,2.1c1.8,1.3,3.9,2.8,7.8,2.8c4,0,6-1.5,7.8-2.8
			c1.6-1.2,2.9-2.1,5.8-2.1c2.8,0,4.1,0.9,5.8,2.1c0.3,0.2,0.7,0.5,1,0.7l3.7-1.9C134,206.8,133.2,206.2,132.3,205.5"/>
		<path class="st0" d="M47.4,153.8c-14,0-25.4-11.4-25.4-25.4v-13.5h50.8v13.5C72.8,142.5,61.4,153.8,47.4,153.8 M26,119v9.5
			c0,11.8,9.6,21.4,21.4,21.4s21.4-9.6,21.4-21.4V119H26z"/>
		<path class="st0" d="M72.3,129.5v-5.6c1.6,0,2.8,1.3,2.8,2.8C75.1,128.3,73.9,129.5,72.3,129.5"/>
		<path class="st0" d="M70.7,138.4l0.3-4c4.3,0.3,8-3,8.2-7.2c0.3-4.3-3-8-7.2-8.2c0,0,0.7-4,0.9-4c6.2,0.7,10.8,6.2,10.4,12.5
			C82.7,133.9,77.1,138.8,70.7,138.4"/>
		
			<rect x="105.5" y="160.4" transform="matrix(0.1402 -0.9901 0.9901 0.1402 -57.5357 258.6074)" class="st0" width="29.2" height="4"/>
		
			<rect x="109.3" y="101.9" transform="matrix(0.8652 -0.5015 0.5015 0.8652 -44.9788 71.9594)" class="st0" width="4" height="35.4"/>
		<polygon class="st0" points="77.9,120.5 74.2,118.4 93.3,102.8 95.9,105.9 		"/>
		
			<rect x="61.3" y="101.3" transform="matrix(0.498 -0.8672 0.8672 0.498 -51.5335 117.6761)" class="st0" width="29.1" height="4"/>
		
			<rect x="128.9" y="75.4" transform="matrix(0.7301 -0.6833 0.6833 0.7301 -33.6487 116.6631)" class="st0" width="4" height="51.1"/>
		
			<rect x="159.5" y="142.3" transform="matrix(0.9979 -6.525634e-02 6.525634e-02 0.9979 -10.1505 10.8829)" class="st0" width="4" height="37"/>
		<path class="st0" d="M99,106.9c-9.9,0-17.9-8-17.9-17.9s8-17.9,17.9-17.9s17.9,8,17.9,17.9C117,98.8,108.9,106.9,99,106.9 M99,75
			c-7.7,0-13.9,6.2-13.9,13.9c0,7.7,6.2,13.9,13.9,13.9c7.7,0,13.9-6.2,13.9-13.9C113,81.3,106.7,75,99,75"/>
		<path class="st0" d="M140.2,160.8c-12.4,0-22.4-10.1-22.4-22.4c0-12.4,10.1-22.4,22.4-22.4c12.4,0,22.4,10.1,22.4,22.4
			C162.6,150.7,152.6,160.8,140.2,160.8 M140.2,120c-10.2,0-18.4,8.3-18.4,18.4s8.3,18.4,18.4,18.4c10.2,0,18.4-8.3,18.4-18.4
			S150.4,120,140.2,120"/>
		<path class="st0" d="M39.9,109.5c-0.9-1.3-1.5-2.9-1.1-4.5c0.2-0.8,0.6-1.6,1.2-2.2s1.3-1.1,2-1.4c1.5-0.7,3.1-1.1,4.6-1.4l4.6-1
			c3-0.7,6.1-1.3,9-2.2c1.4-0.4,2.9-1,4.1-1.6c0.6-0.3,1.2-0.7,1.5-1.1c0.4-0.4,0.5-0.7,0.4-0.9c0-0.4-1-1.9-1.8-2.1
			c-1-0.5-2.5-0.7-4-0.8c-2.9-0.3-6-0.2-9.1-0.2c-6.2,0.1-12.4,0.5-18.7,0.5c-3.2-0.1-6.3-0.1-9.8-0.8c-1.7-0.4-3.6-0.9-5.4-2.3
			c-0.9-0.7-1.7-1.8-2.2-2.9c-0.5-1.2-0.6-2.4-0.5-3.5s0.3-2.3,0.9-3.4c0.6-1.1,1.5-2,2.4-2.6c1.8-1.3,3.6-1.8,5.3-2.2
			c1.7-0.4,3.2-0.7,4.8-1c1.6-0.3,3.2-0.5,4.7-0.7c6.3-0.8,12.6-1.2,18.8-1.6c6.2-0.3,12.4-0.6,18.5-1.2c1.5-0.1,3-0.3,4.4-0.5
			s2.8-0.5,4.1-1c1.3-0.4,2.5-1,3.5-1.6s1.8-1.4,2.1-2.2c0.3-0.8,0.4-1.4,0-2.2c-0.4-0.8-1.1-1.5-2.1-2.1c-0.5-0.3-1-0.5-1.6-0.7
			c-0.3-0.1-0.6-0.2-0.9-0.2c-0.3-0.1-0.7-0.1-1.1-0.2L73.9,57c-6.1-1-12.2-1.8-18.4-2.5c-6.2-0.7-12.3-1.2-18.5-1.8
			c-6.2-0.6-12.4-1.2-18.6-2.1c-1.6-0.2-3.1-0.5-4.6-0.7c-1.6-0.3-3.1-0.5-4.7-0.9s-3.2-1.1-4.6-2.2c-1.4-1-2.6-2.5-3-4.3
			s0.1-3.8,1.1-5.2c1-1.4,2.4-2.4,3.9-3.2c2.9-1.4,6-2.1,9.2-2.6c3.1-0.4,6.2-0.5,9.4-0.6c3.1-0.1,6.2-0.1,9.3-0.1
			c-6.2,0.4-12.5,0.7-18.5,1.8c-3,0.6-6,1.4-8.6,2.9c-1.3,0.7-2.4,1.7-3.1,2.8c-0.7,1.1-1,2.5-0.7,3.7s1.2,2.3,2.4,3
			c1.1,0.8,2.5,1.3,3.9,1.6c1.4,0.3,3,0.5,4.5,0.6c1.5,0.2,3.1,0.3,4.6,0.4c6.2,0.5,12.4,0.9,18.6,1.2c12.4,0.6,24.9,1.3,37.4,3
			l4.6,0.6c0.7,0.1,1.7,0.2,2.6,0.5s1.8,0.6,2.7,1.1c1.7,0.9,3.4,2.3,4.4,4.4c0.5,1,0.8,2.2,0.8,3.4c0,1.2-0.2,2.4-0.7,3.4
			c-0.9,2.1-2.5,3.6-4,4.6c-1.6,1.1-3.2,1.8-4.9,2.4c-1.7,0.6-3.3,1-5,1.2c-0.8,0.2-1.6,0.3-2.5,0.4c-0.8,0.1-1.6,0.2-2.4,0.3
			c-6.3,0.6-12.5,1-18.7,1.4s-12.4,0.7-18.4,1.4c-1.5,0.2-3,0.4-4.5,0.6s-3,0.5-4.4,0.8s-2.6,0.7-3.3,1.3c-0.7,0.5-0.9,0.9-1.1,1.8
			c0,0.5,0,0.8,0.1,1.1c0.1,0.3,0.2,0.5,0.5,0.8c0.6,0.5,1.8,1,3.1,1.3c2.6,0.6,5.8,0.8,8.8,0.9c6.1,0.3,12.3,0.2,18.6,0.3
			c3.1,0.1,6.3,0.2,9.5,0.7c1.6,0.3,3.3,0.6,5,1.4c0.4,0.2,0.9,0.5,1.3,0.9c0.3,0.2,0.4,0.4,0.5,0.6s0.3,0.4,0.4,0.6
			c0.5,0.8,1.1,1.8,1.1,3.1c0,0.7-0.2,1.3-0.5,1.9c-0.3,0.5-0.7,1-1.1,1.3c-0.8,0.7-1.6,1.1-2.4,1.5c-1.6,0.7-3.1,1.1-4.7,1.5
			c-3.1,0.7-6.2,1.1-9.3,1.5l-4.6,0.6c-1.5,0.2-3,0.4-4.4,0.9s-2.7,1.4-3.1,2.8C38.8,106.5,39.1,108.2,39.9,109.5"/>
		<path class="st0" d="M136.7,41.2c-21.9-23.5-43.9-39-44.1-39.1l-1.8-1.3L89,2c-0.4,0.3-18.7,12.6-38.5,32.4
			c-1.7,1.6-1.1,4.5,1.1,5.3c1.2,0.5,2.5,0.2,3.4-0.7C70.9,23.1,85.8,12.2,90.7,8.7c11.9,8.9,83.9,64.7,83.9,122
			c0,47.3-37.6,85.8-83.9,85.8c-46.2,0-83.9-38.5-83.9-85.8c0-11.8,2.8-23.4,7.3-34.4c0.7-1.7-0.1-3.6-1.8-4.2
			c-1.6-0.6-3.5,0.2-4.1,1.8c-4.9,11.7-7.9,24.1-7.9,36.8c0,50.9,40.5,92.2,90.3,92.2s90.3-41.4,90.3-92.2
			C181.1,96.2,157,63,136.7,41.2"/>
	</g>
</g>
<g id="레이어_2_1_">
</g>
</svg>
