<?xml version="1.0" encoding="utf-8"?>
<!-- Generator: Adobe Illustrator 22.0.1, SVG Export Plug-In . SVG Version: 6.00 Build 0)  -->
<svg version="1.1" id="레이어_1" xmlns="http://www.w3.org/2000/svg" xmlns:xlink="http://www.w3.org/1999/xlink" x="0px"
	 y="0px" viewBox="0 0 600 200" style="enable-background:new 0 0 600 200;" xml:space="preserve">
<style type="text/css">
	.st0{fill:#C0685A;}
</style>
<g>
	<path class="st0" d="M273.2,55.4c-3-2.8-7.1-4.8-12.2-6.1s-11.5-1.9-19.2-1.9h-39.4c-7.6,0-14,0.6-19,1.9
		c-5.1,1.3-9.1,3.3-12.2,6.1c-3,2.8-5.2,6.5-6.5,11c-1.3,4.6-1.9,10.1-1.9,16.6v32.6c0,6.6,0.6,12.2,1.9,16.7
		c1.3,4.5,3.4,8.2,6.5,11c3,2.8,7.1,4.8,12.2,6.1c5.1,1.3,11.4,1.9,19,1.9h39.4c7.7,0,14.1-0.6,19.2-1.9c5.1-1.3,9.1-3.3,12.2-6.1
		c3-2.8,5.2-6.4,6.5-11c1.3-4.5,1.9-10.1,1.9-16.7V83c0-6.5-0.6-12-1.9-16.6C278.4,61.8,276.3,58.2,273.2,55.4 M258.4,114.7
		c0,3.4-0.3,6.1-0.8,8.3c-0.6,2.2-1.5,3.9-2.8,5.2c-1.3,1.3-3.1,2.1-5.4,2.6c-2.3,0.5-5.1,0.7-8.4,0.7h-37.5c-3.7,0-6.6-0.2-8.9-0.7
		c-2.3-0.5-4.1-1.3-5.4-2.6c-1.3-1.3-2.2-3-2.7-5.2s-0.7-4.9-0.7-8.3V84.1c0-3.2,0.2-5.9,0.7-8.1c0.5-2.1,1.3-3.9,2.7-5.2
		c1.3-1.3,3.1-2.2,5.4-2.7c2.3-0.5,5.3-0.8,8.9-0.8H241c3.3,0,6.2,0.3,8.4,0.8c2.3,0.5,4.1,1.4,5.4,2.7c1.3,1.3,2.3,3,2.8,5.2
		c0.6,2.1,0.8,4.8,0.8,8.1V114.7z"/>
	<path class="st0" d="M416.8,103.6c-1.1-1.6-2.5-2.9-4-3.7c-1.6-0.9-3.3-1.5-5.1-1.9c3.2-0.9,5.9-2.7,8.1-5.3
		c2.1-2.6,3.2-7,3.2-13.1V71c0-4.4-0.6-8-1.8-11c-1.2-3-3.1-5.4-5.7-7.3c-2.6-1.9-6-3.2-10.1-4c-4.2-0.8-9.2-1.2-15.1-1.2h-87.5
		v103.8h89.1c5.9,0,10.9-0.4,15.1-1.2s7.5-2.1,10.1-3.9c2.6-1.8,4.5-4.1,5.6-6.9c1.2-2.8,1.8-6.3,1.8-10.5v-9.1
		c0-3.9-0.3-7.1-0.9-9.7C418.7,107.3,417.9,105.2,416.8,103.6 M321.8,66.3h62.6c4.9,0,8.2,0.6,10.1,1.8c1.9,1.2,2.8,3.3,2.8,6.5V81
		c0,3.5-0.8,5.8-2.3,7.2c-1.5,1.3-4.3,2-8.4,2h-64.8V66.3z M398.6,123.9c0,3.3-0.9,5.5-2.8,6.6c-1.9,1.2-5,1.7-9.4,1.7h-64.7v-25.4
		h65.5c4.3,0,7.2,0.7,8.9,2.1c1.7,1.4,2.5,4.3,2.5,8.5V123.9z"/>
	<path class="st0" d="M516.8,55.3c-1.8-2.9-4-5.4-6.5-7.3c-2.5-1.9-6.1-2.9-10.8-2.9c-4.8,0-8.4,1-11,2.9c-2.5,1.9-4.7,4.4-6.5,7.3
		l-60.3,95.9h26.6l14.8-23.9h71.8l15.1,23.9h26.8L516.8,55.3z M473.8,109.5l25.2-41l25.1,40.9L473.8,109.5L473.8,109.5z"/>
	<path class="st0" d="M97.7,116H108c7.1,0,13.2-0.5,18.4-1.4s9.5-2.5,12.9-4.8c3.4-2.3,5.9-5.4,7.5-9.3s2.4-8.9,2.4-14.8v-7.2
		c0-6.2-0.8-11.3-2.3-15.4s-3.9-7.3-7.2-9.6s-7.5-4-12.7-4.9s-11.4-1.4-18.7-1.4H58c-19.4,0-30.9,12.2-30.9,27.2V151h23v-14.4v-23.4
		V98.5V89V78.9c0-6.7,5.4-12.1,14.1-12.1h42.7c3.8,0,6.9,0.2,9.4,0.5s4.5,0.9,5.9,1.8s2.4,2.2,3,4c0.6,1.7,0.9,4,0.9,6.7v5.6
		c0,2.8-0.3,5.1-0.9,6.9c-0.6,1.7-1.7,3-3.1,4c-1.5,0.9-3.5,1.5-5.9,1.8c-2.5,0.3-5.6,0.5-9.4,0.5H83.7c-8.8,0-15.9,7.1-15.9,15.9
		v1.4c0,5.3,2.8,10.3,7.3,13.1l35.9,22.2h39.7l-54-31.2C94.8,118.9,95.5,116,97.7,116"/>
</g>
</svg>
